<?xml version="1.0" encoding="UTF-8"?>
<svg width="20px" height="27px" viewBox="0 0 20 27" version="1.1" xmlns="http://www.w3.org/2000/svg" xmlns:xlink="http://www.w3.org/1999/xlink">
    <!-- Generator: Sketch 52.6 (67491) - http://www.bohemiancoding.com/sketch -->
    <title>apple</title>
    <desc>Created with Sketch.</desc>
    <g id="Page-1" stroke="none" stroke-width="1" fill="none" fill-rule="evenodd">
        <g id="List" transform="translate(-53.000000, -626.000000)" fill="#3F59A6">
            <path d="M63.4325,634.31553 C68.696,631.94902 72.746,635.097569 72.746,640.467844 C72.746,646.029804 68.8485,654.564432 62.8715,651.927216 C57.1965,654.477255 53,646.029295 53,640.467844 C53,635.143451 57.5055,632.081569 62.2455,634.267608 C63.7785,630.212118 65.081,628.306981 65.081,628.306981 C65.246,628.083177 65.5845,627.99651 65.8335,628.115295 L67.5945,628.954432 C67.8435,629.072706 67.867,629.307726 67.648,629.476471 C67.648,629.476471 66.191,630.596 65.447,631.468275 L65.446,631.468275 C64.5675,632.49604 63.872,633.567138 63.4325,634.31553 Z M62.371,632.514393 C62.371,632.514393 60.237,632.695373 58.7495,631.179216 C57.261,629.66153 57.44,627.485687 57.44,627.485687 C57.4625,627.206824 57.7045,626.959569 57.9785,626.936118 C57.9785,626.936118 60.1075,626.755138 61.5985,628.272824 C63.085,629.79 62.909,631.964824 62.909,631.964824 C62.887,632.243687 62.645,632.490942 62.371,632.514393 Z" id="apple"></path>
        </g>
    </g>
</svg>