<?xml version="1.0" encoding="UTF-8"?>
<svg width="25px" height="25px" viewBox="0 0 25 25" version="1.1" xmlns="http://www.w3.org/2000/svg" xmlns:xlink="http://www.w3.org/1999/xlink">
    <!-- Generator: Sketch 52.6 (67491) - http://www.bohemiancoding.com/sketch -->
    <title>cards-active</title>
    <desc>Created with Sketch.</desc>
    <g id="Page-1" stroke="none" stroke-width="1" fill="none" fill-rule="evenodd">
        <g id="Cards" transform="translate(-1383.000000, -487.000000)" fill="#3F59A6" fill-rule="nonzero">
            <g id="Group-4">
                <g id="Group-3" transform="translate(1365.000000, 469.000000)">
                    <path d="M19.3736264,18 L27.6153846,18 C28.3740175,18 28.989011,18.6149935 28.989011,19.3736264 L28.989011,27.6153846 C28.989011,28.3740175 28.3740175,28.989011 27.6153846,28.989011 L19.3736264,28.989011 C18.6149935,28.989011 18,28.3740175 18,27.6153846 L18,19.3736264 C18,18.6149935 18.6149935,18 19.3736264,18 Z M19.3736264,32.010989 L27.6153846,32.010989 C28.3740175,32.010989 28.989011,32.6259825 28.989011,33.3846154 L28.989011,41.6263736 C28.989011,42.3850065 28.3740175,43 27.6153846,43 L19.3736264,43 C18.6149935,43 18,42.3850065 18,41.6263736 L18,33.3846154 C18,32.6259825 18.6149935,32.010989 19.3736264,32.010989 Z M33.3846154,18 L41.6263736,18 C42.3850065,18 43,18.6149935 43,19.3736264 L43,27.6153846 C43,28.3740175 42.3850065,28.989011 41.6263736,28.989011 L33.3846154,28.989011 C32.6259825,28.989011 32.010989,28.3740175 32.010989,27.6153846 L32.010989,19.3736264 C32.010989,18.6149935 32.6259825,18 33.3846154,18 Z M33.3846154,32.010989 L41.6263736,32.010989 C42.3850065,32.010989 43,32.6259825 43,33.3846154 L43,41.6263736 C43,42.3850065 42.3850065,43 41.6263736,43 L33.3846154,43 C32.6259825,43 32.010989,42.3850065 32.010989,41.6263736 L32.010989,33.3846154 C32.010989,32.6259825 32.6259825,32.010989 33.3846154,32.010989 Z" id="cards-active"></path>
                </g>
            </g>
        </g>
    </g>
</svg>