<?xml version="1.0" encoding="UTF-8"?>
<svg width="24px" height="19px" viewBox="0 0 24 19" version="1.1" xmlns="http://www.w3.org/2000/svg" xmlns:xlink="http://www.w3.org/1999/xlink">
    <!-- Generator: Sketch 52.6 (67491) - http://www.bohemiancoding.com/sketch -->
    <title>coffee</title>
    <desc>Created with Sketch.</desc>
    <g id="Page-1" stroke="none" stroke-width="1" fill="none" fill-rule="evenodd">
        <g id="List" transform="translate(-51.000000, -571.000000)" fill="#3F59A6">
            <path d="M51.9697358,588.972861 C51.3234113,588.335491 51.0001811,587.566047 51,586.664841 L74.1680604,586.664841 C74.1680604,587.566047 73.8448302,588.335491 73.1985962,588.972861 C72.5523623,589.610543 71.772317,589.929407 70.8585962,589.929407 L54.3098717,589.929407 C53.3961962,589.929407 52.6162415,589.610543 51.9697358,588.972861 Z M57.2058566,585.032514 C56.4129057,585.032514 55.7319849,584.752062 55.1630943,584.190846 C54.5942038,583.62972 54.3098264,582.958092 54.3098264,582.175963 L54.3098264,572.790459 C54.3098264,572.569457 54.3916981,572.378067 54.5554415,572.216514 C54.7192755,572.055184 54.9131774,571.974251 55.1371925,571.974251 L70.0307321,571.974251 C71.4012679,571.974251 72.5716075,572.452613 73.5410717,573.408935 C74.5104906,574.365258 74.9955623,575.519447 74.9955623,576.871323 C74.9955623,578.22302 74.5104906,579.37703 73.5410717,580.333486 C72.5715623,581.289988 71.4012679,581.768082 70.0307321,581.768082 L69.2035019,581.768082 L69.2035019,582.176052 C69.2035019,582.958136 68.919034,583.629809 68.3502792,584.190935 C67.7812528,584.752062 67.1003321,585.032514 66.307517,585.032514 L57.2058566,585.032514 Z M69.2035019,574.422921 L69.2035019,579.319814 L70.0310038,579.319814 C70.7205736,579.319814 71.306717,579.081705 71.7892528,578.60571 C72.2717887,578.129402 72.5132377,577.551258 72.5132377,576.871367 C72.5132377,576.191119 72.2717887,575.613109 71.7892528,575.13698 C71.306717,574.660985 70.7206189,574.422921 70.0310038,574.422921 L69.2035019,574.422921 Z" id="coffee"></path>
        </g>
    </g>
</svg>