<?xml version="1.0" encoding="UTF-8"?>
<svg width="30px" height="6px" viewBox="0 0 30 6" version="1.1" xmlns="http://www.w3.org/2000/svg" xmlns:xlink="http://www.w3.org/1999/xlink">
    <!-- Generator: Sketch 52.6 (67491) - http://www.bohemiancoding.com/sketch -->
    <title>more</title>
    <desc>Created with Sketch.</desc>
    <g id="Page-1" stroke="none" stroke-width="1" fill="none" fill-rule="evenodd">
        <g id="List" transform="translate(-1455.000000, -127.000000)" fill="#98A3C3" fill-rule="nonzero">
            <path d="M1458,133 C1456.34315,133 1455,131.656854 1455,130 C1455,128.343146 1456.34315,127 1458,127 C1459.65685,127 1461,128.343146 1461,130 C1461,131.656854 1459.65685,133 1458,133 Z M1470,133 C1468.34315,133 1467,131.656854 1467,130 C1467,128.343146 1468.34315,127 1470,127 C1471.65685,127 1473,128.343146 1473,130 C1473,131.656854 1471.65685,133 1470,133 Z M1482,133 C1480.34315,133 1479,131.656854 1479,130 C1479,128.343146 1480.34315,127 1482,127 C1483.65685,127 1485,128.343146 1485,130 C1485,131.656854 1483.65685,133 1482,133 Z" id="more"></path>
        </g>
    </g>
</svg>