<?xml version="1.0" encoding="UTF-8"?>
<svg width="25px" height="25px" viewBox="0 0 25 25" version="1.1" xmlns="http://www.w3.org/2000/svg" xmlns:xlink="http://www.w3.org/1999/xlink">
    <!-- Generator: Sketch 52.6 (67491) - http://www.bohemiancoding.com/sketch -->
    <title>search</title>
    <desc>Created with Sketch.</desc>
    <g id="Page-1" stroke="none" stroke-width="1" fill="none" fill-rule="evenodd">
        <g id="List" transform="translate(-605.000000, -118.000000)" fill="#CBD0E1" fill-rule="nonzero">
            <path d="M629.444257,139.724966 L624.291022,134.571875 C625.532905,132.779121 626.154162,130.780559 626.154162,128.577241 C626.154162,127.144953 625.876106,125.775128 625.319995,124.468082 C624.764253,123.160826 624.012966,122.034066 623.066451,121.087539 C622.119936,120.141012 620.993348,119.389716 619.686372,118.833914 C618.378974,118.277954 617.009272,118 615.577002,118 C614.144837,118 612.77503,118.277954 611.468,118.833914 C610.160761,119.389716 609.034015,120.141012 608.0875,121.087539 C607.14088,122.034066 606.389699,123.161036 605.833851,124.468082 C605.27795,125.775286 605,127.144953 605,128.577241 C605,130.009424 605.27795,131.378775 605.833851,132.686189 C606.389646,133.993235 607.14088,135.119837 608.0875,136.066364 C609.034015,137.013206 610.160971,137.764187 611.468,138.320305 C612.775188,138.87616 614.144837,139.154061 615.577002,139.154061 C617.780765,139.154061 619.778987,138.532743 621.571824,137.29095 L626.72506,142.429095 C627.085627,142.809611 627.535757,143 628.077081,143 C628.597882,143 629.048854,142.809663 629.429155,142.429095 C629.809613,142.048632 630,141.597865 630,141.077057 C630.000158,140.546513 629.814875,140.095588 629.444257,139.724966 Z M620.332151,133.331924 C619.015071,134.649231 617.430144,135.307858 615.577002,135.307858 C613.724176,135.307858 612.139249,134.649073 610.822063,133.331924 C609.504878,132.014827 608.846312,130.430091 608.846312,128.576925 C608.846312,126.724075 609.505036,125.138865 610.822063,123.821926 C612.138986,122.504672 613.724176,121.84615 615.577002,121.84615 C617.429934,121.84615 619.01486,122.504935 620.332151,123.821926 C621.649442,125.138865 622.308008,126.724075 622.308008,128.576925 C622.308008,130.430091 621.649231,132.014827 620.332151,133.331924 Z" id="search"></path>
        </g>
    </g>
</svg>