<?xml version="1.0" encoding="UTF-8"?>
<svg width="26px" height="25px" viewBox="0 0 26 25" version="1.1" xmlns="http://www.w3.org/2000/svg" xmlns:xlink="http://www.w3.org/1999/xlink">
    <!-- Generator: Sketch 52.6 (67491) - http://www.bohemiancoding.com/sketch -->
    <title>star</title>
    <desc>Created with Sketch.</desc>
    <g id="Page-1" stroke="none" stroke-width="1" fill="none" fill-rule="evenodd">
        <g id="List" transform="translate(-50.000000, -689.000000)" fill="#3F59A6">
            <path d="M74.9073844,700.261958 C75.4085217,699.782958 75.5854236,699.079958 75.3692668,698.426458 C75.1526001,697.772958 74.5882471,697.306458 73.8949138,697.207458 L67.7303648,696.328958 C67.4678158,696.291458 67.240953,696.129958 67.1236981,695.896458 L64.3676981,690.418458 C64.0582471,689.802958 63.4301687,689.420458 62.7302079,689.420458 C62.0307569,689.420458 61.4026785,689.802958 61.0932275,690.418458 L58.3367177,695.896958 C58.2194628,696.130458 57.9920903,696.291958 57.7295413,696.329458 L51.5649922,697.207958 C50.8721687,697.306458 50.307306,697.773458 50.0906393,698.426958 C49.8744824,699.080458 50.0513844,699.783458 50.5525217,700.262458 L55.0127962,704.526458 C55.202953,704.708458 55.2901295,704.970458 55.2452668,705.226458 L54.1930315,711.247458 C54.0997373,711.777458 54.2414628,712.292958 54.5911883,712.699458 C55.1346393,713.332958 56.0833844,713.525958 56.8419726,713.134958 L62.3549922,710.291958 C62.5854236,710.173458 62.875502,710.174458 63.1054236,710.291958 L68.618953,713.134958 C68.8871099,713.273458 69.1731099,713.343458 69.4682864,713.343458 C70.0071491,713.343458 70.5179726,713.108458 70.8692275,712.699458 C71.2194628,712.292958 71.3606785,711.776458 71.2673844,711.247458 L70.2146393,705.226458 C70.1697766,704.969958 70.256953,704.708458 70.4471099,704.526458 L74.9073844,700.261958 Z" id="star"></path>
        </g>
    </g>
</svg>