<?xml version="1.0" encoding="UTF-8"?>
<svg width="30px" height="30px" viewBox="0 0 30 30" version="1.1" xmlns="http://www.w3.org/2000/svg" xmlns:xlink="http://www.w3.org/1999/xlink">
    <!-- Generator: Sketch 52.6 (67491) - http://www.bohemiancoding.com/sketch -->
    <title>close</title>
    <desc>Created with Sketch.</desc>
    <g id="Page-1" stroke="none" stroke-width="1" fill="none" fill-rule="evenodd">
        <g id="Dashboard-Panel" transform="translate(-1530.000000, -40.000000)" fill="#CBD0E1" fill-rule="nonzero">
            <path d="M1547.88068,55 L1559.40339,66.5227136 C1560.19887,67.3181909 1560.19887,68.6079146 1559.40339,69.403392 C1558.60791,70.1988693 1557.31819,70.1988693 1556.52271,69.403392 L1545,57.8806784 L1533.47729,69.403392 C1532.68181,70.1988693 1531.39209,70.1988693 1530.59661,69.403392 C1529.80113,68.6079146 1529.80113,67.3181909 1530.59661,66.5227136 L1542.11932,55 L1530.59661,43.4772864 C1529.80113,42.6818091 1529.80113,41.3920854 1530.59661,40.596608 C1531.39209,39.8011307 1532.68181,39.8011307 1533.47729,40.596608 L1545,52.1193216 L1556.52271,40.596608 C1557.31819,39.8011307 1558.60791,39.8011307 1559.40339,40.596608 C1560.19887,41.3920854 1560.19887,42.6818091 1559.40339,43.4772864 L1547.88068,55 Z" id="close"></path>
        </g>
    </g>
</svg>