<?xml version="1.0" encoding="UTF-8"?>
<svg width="25px" height="25px" viewBox="0 0 25 25" version="1.1" xmlns="http://www.w3.org/2000/svg" xmlns:xlink="http://www.w3.org/1999/xlink">
    <!-- Generator: Sketch 52.6 (67491) - http://www.bohemiancoding.com/sketch -->
    <title>list-white</title>
    <desc>Created with Sketch.</desc>
    <g id="Page-1" stroke="none" stroke-width="1" fill="none" fill-rule="evenodd">
        <path d="M1.37362637,0 L23.6263736,0 C24.3850065,-2.16076271e-15 25,0.614993476 25,1.37362637 L25,2.1978022 C25,2.9564351 24.3850065,3.57142857 23.6263736,3.57142857 L1.37362637,3.57142857 C0.614993476,3.57142857 -1.2913887e-16,2.9564351 -2.22044605e-16,2.1978022 L-2.22044605e-16,1.37362637 C-3.1495034e-16,0.614993476 0.614993476,1.39358603e-16 1.37362637,0 Z M1.37362637,10.7142857 L23.6263736,10.7142857 C24.3850065,10.7142857 25,11.3292792 25,12.0879121 L25,12.9120879 C25,13.6707208 24.3850065,14.2857143 23.6263736,14.2857143 L1.37362637,14.2857143 C0.614993476,14.2857143 -1.2913887e-16,13.6707208 -2.22044605e-16,12.9120879 L-2.22044605e-16,12.0879121 C-3.1495034e-16,11.3292792 0.614993476,10.7142857 1.37362637,10.7142857 Z M1.37362637,21.4285714 L23.6263736,21.4285714 C24.3850065,21.4285714 25,22.0435649 25,22.8021978 L25,23.6263736 C25,24.3850065 24.3850065,25 23.6263736,25 L1.37362637,25 C0.614993476,25 -1.2913887e-16,24.3850065 -2.22044605e-16,23.6263736 L-2.22044605e-16,22.8021978 C-3.1495034e-16,22.0435649 0.614993476,21.4285714 1.37362637,21.4285714 Z" id="list-white" fill="#FFFFFF" fill-rule="nonzero"></path>
    </g>
</svg>