<?xml version="1.0" encoding="UTF-8"?>
<svg width="25px" height="25px" viewBox="0 0 25 25" version="1.1" xmlns="http://www.w3.org/2000/svg" xmlns:xlink="http://www.w3.org/1999/xlink">
    <!-- Generator: Sketch 52.6 (67491) - http://www.bohemiancoding.com/sketch -->
    <title>list</title>
    <desc>Created with Sketch.</desc>
    <g id="Page-1" stroke="none" stroke-width="1" fill="none" fill-rule="evenodd">
        <g id="List" transform="translate(-1458.000000, -487.000000)" fill="#3F59A6" fill-rule="nonzero">
            <path d="M1459.37363,487 L1481.62637,487 C1482.38501,487 1483,487.614993 1483,488.373626 L1483,489.197802 C1483,489.956435 1482.38501,490.571429 1481.62637,490.571429 L1459.37363,490.571429 C1458.61499,490.571429 1458,489.956435 1458,489.197802 L1458,488.373626 C1458,487.614993 1458.61499,487 1459.37363,487 Z M1459.37363,497.714286 L1481.62637,497.714286 C1482.38501,497.714286 1483,498.329279 1483,499.087912 L1483,499.912088 C1483,500.670721 1482.38501,501.285714 1481.62637,501.285714 L1459.37363,501.285714 C1458.61499,501.285714 1458,500.670721 1458,499.912088 L1458,499.087912 C1458,498.329279 1458.61499,497.714286 1459.37363,497.714286 Z M1459.37363,508.428571 L1481.62637,508.428571 C1482.38501,508.428571 1483,509.043565 1483,509.802198 L1483,510.626374 C1483,511.385007 1482.38501,512 1481.62637,512 L1459.37363,512 C1458.61499,512 1458,511.385007 1458,510.626374 L1458,509.802198 C1458,509.043565 1458.61499,508.428571 1459.37363,508.428571 Z" id="list"></path>
        </g>
    </g>
</svg>