<?xml version="1.0" encoding="UTF-8"?>
<svg width="26px" height="24px" viewBox="0 0 26 24" version="1.1" xmlns="http://www.w3.org/2000/svg" xmlns:xlink="http://www.w3.org/1999/xlink">
    <!-- Generator: Sketch 52.6 (67491) - http://www.bohemiancoding.com/sketch -->
    <title>winner</title>
    <desc>Created with Sketch.</desc>
    <g id="Page-1" stroke="none" stroke-width="1" fill="none" fill-rule="evenodd">
        <g id="List" transform="translate(-51.000000, -511.000000)" fill="#3F59A6" fill-rule="nonzero">
            <path d="M76.5131555,515.43251 C76.2221303,515.141285 75.8687815,514.995535 75.4528908,514.995535 L70.9614454,514.995535 L70.9614454,513.497203 C70.9614454,512.810442 70.7175042,512.222688 70.2286933,511.733503 C69.7401008,511.244483 69.1524244,511 68.4663739,511 L59.4837563,511 C58.7975966,511 58.210084,511.244428 57.721437,511.733503 C57.2327353,512.222633 56.988521,512.810387 56.988521,513.497203 L56.988521,514.99559 L52.4970756,514.99559 C52.0812941,514.99559 51.7278361,515.141175 51.4366471,515.432565 C51.145458,515.723954 51,516.077777 51,516.494032 L51,518.491882 C51,519.230579 51.2157017,519.974633 51.6472143,520.723936 C52.0786176,521.473075 52.6607227,522.149667 53.3938571,522.752948 C54.1267185,523.356501 55.0260126,523.863836 56.0917395,524.274897 C57.157521,524.685959 58.2776513,524.91754 59.4525672,524.969367 C59.8893235,525.53159 60.3829958,526.02564 60.934021,526.452064 C61.3292101,526.805831 61.601937,527.182779 61.7527479,527.583945 C61.903395,527.984292 61.9787731,528.449968 61.9787731,528.980756 C61.9787731,529.542761 61.8203697,530.016091 61.5031261,530.400747 C61.1862101,530.786169 60.6793193,530.978497 59.9827815,530.978497 C59.2029454,530.978497 58.509084,531.215326 57.9008151,531.688656 C57.2926555,532.162369 56.988521,532.75805 56.988521,533.476082 L56.988521,534.474788 C56.988521,534.620702 57.0352227,534.740428 57.1287899,534.833968 C57.2224118,534.927508 57.3418697,534.974251 57.4874916,534.974251 L70.462584,534.974251 C70.6084244,534.974251 70.7276639,534.927508 70.8215042,534.833968 C70.9145798,534.740428 70.9613361,534.620702 70.9613361,534.474788 L70.9613361,533.476082 C70.9613361,532.757995 70.6574202,532.162533 70.0487689,531.688656 C69.4405,531.215326 68.7466387,530.978497 67.9668025,530.978497 C67.2704832,530.978497 66.7633739,530.786114 66.4467311,530.400747 C66.1297059,530.016091 65.9715756,529.542815 65.9715756,528.980756 C65.9715756,528.449749 66.0467353,527.984292 66.1973824,527.583945 C66.3484664,527.182779 66.6213571,526.80605 67.0161092,526.452064 C67.5671891,526.025476 68.0610252,525.531153 68.4972899,524.969367 C69.6726975,524.91754 70.7925546,524.685904 71.8585546,524.274897 C72.9238445,523.863836 73.823521,523.356501 74.5562731,522.752948 C75.2894076,522.149449 75.8715126,521.473075 76.302916,520.723936 C76.7343193,519.974633 76.9500756,519.230633 76.9500756,518.491882 L76.9500756,516.494032 C76.9498571,516.077995 76.8042353,515.724064 76.5131555,515.43251 Z M54.4698529,521.020301 C53.4873697,520.146296 52.9962101,519.303399 52.9962101,518.491718 L52.9962101,516.99333 L56.9884664,516.99333 C56.9884664,519.16831 57.3730042,521.098478 58.1424076,522.784164 C56.6766849,522.482497 55.4524454,521.894305 54.4698529,521.020301 Z M74.9536471,518.491882 C74.9536471,519.303563 74.4628151,520.146679 73.4803319,521.020629 C72.4974664,521.894633 71.2732815,522.482661 69.8076134,522.784328 C70.5770168,521.098697 70.9615,519.168474 70.9615,516.993494 L74.9536471,516.993494 L74.9536471,518.491882 Z" id="winner"></path>
        </g>
    </g>
</svg>